<svg xmlns="http://www.w3.org/2000/svg" viewBox="0 0 150 74.7" enable-background="new 0 0 150 74.7"><path fill="#004990" d="M48 5c3 0 9.2 1.3 11.5 2-23.6-1.1-38.4 14.8-38.4 33.1 0 13 7.8 27.4 26.5 31.7-21.7.4-34.4-17.5-34.4-33.1 0-19.8 17-33.7 34.8-33.7zM35.4 0c3.8 0 8.8 1.3 12.3 2.3-1.5-.2-3.9-.2-4.8-.2-21.6 0-34.7 19.1-34.7 36.7 0 15.2 8.4 31.2 28.6 35.8-23.9.7-36.8-20.3-36.8-37.4 0-19.8 15.7-37.2 35.4-37.2z"/><circle fill="#174D83" cx="55.8" cy="39.4" r="29.6"/><path fill="#fff" d="M38.7 32.7h6.4c2.7 0 3.7.9 3.7 2.7 0 1.6-.8 2.6-2.3 3 1.1.2 1.9 1.3 1.9 2.5 0 3-2.4 4.2-5.1 4.2h-7.1l2.5-12.4zm1.8 9.4h2.5c.7 0 1.6-.2 1.6-1.3 0-.9-.7-1.1-1.5-1.1h-2.1l-.5 2.4zm.9-4.6h2.2c.6 0 1.4-.2 1.4-1 0-.7-.5-.9-1.2-.9h-2l-.4 1.9zM57.9 36.4c0-.5-.2-.8-.4-1-.3-.2-.7-.3-1.1-.3-.6 0-1.5.2-1.5 1 0 .9 1.9 1 3.1 1.4 2.2.8 2.9 1.9 2.9 3.4 0 3-2.9 4.4-5.6 4.4-2.9 0-5.4-1.3-5.3-4.5h3.7c0 .7.2 1.1.5 1.4.3.3.8.3 1.4.3.7 0 1.7-.4 1.7-1.2 0-.9-1.3-1-3-1.6-1.5-.5-3-1.3-3-3.4 0-2.8 2.7-4.1 5.2-4.1 2.6 0 5 1 5 4.1h-3.6zM74.9 40.4c-.2 1.3-1.2 5-6.4 5-3.6 0-5.3-2.3-5.3-5.7 0-4 2.5-7.4 6.7-7.4 2.8 0 5.2 1.2 5.3 4.9h-3.6c0-1.2-.5-1.8-1.7-1.8-2.1 0-2.9 2.4-2.9 4.2 0 1 .2 2.6 2 2.6 1.2 0 1.9-.8 2.1-1.9l3.8.1z"/><path fill="#004990" d="M149.8 41.5c-.7-1.1-1.9-1.6-3.5-1.6-.8 0-1.6.1-2.3.4-.4-.5-.8-1-1.1-1.7-.6-1.3-.7-2.5-.2-3.4.5-1 .9-1.3 1.3-1 .1.1.2.3.3.5.1.3.2.5.2.4.5.8 1 1.1 1.4 1.1.4-.1.6-.3.8-.9.2-.6 0-1.1-.4-1.5-.2-.2-.6-.4-1.2-.6-.6-.2-1.2-.2-1.8-.1-.7.1-1.3.3-1.8.6-.6.4-.9.9-1.1 1.6-.3 1.2-.1 2.2.5 3 .1.1.2.3.4.5.2.3.3.4.4.6.3.5.6 1 .8 1.4-.7.4-1.3.9-1.8 1.6-.6.7-.9 1.4-.9 2.1-1.9.7-3.2 1-3.8.9-.6-.1-1.3-.6-1.9-1.5-.6-.8-1-1.5-1.2-2.1v-.4c.1-.3.5-.5 1-.7 1.3-.4 2.4-1 3.2-1.9.7-.8 1-1.4.7-1.8-.3-.4-.6-.7-.9-.9-.4-.2-.7-.2-1 .2-.8 1-1.8 1.9-2.8 2.5-1.4.9-2.4 1.7-2.9 2.3-.5.6-.9 1-1.1 1.2-.3.3-.6.3-.7.1-.1-.2-.1-.9.1-1.9.2-1.1.6-2.2 1.1-3.3 1.7-2.9 2.9-5.2 3.7-6.8 1.3-2.6 2-5.2 2.3-7.8.1-1.4-.1-2-.7-1.8-.8.3-1.2.8-1.2 1.6 0 .5-1.4 4.2-4 11.1-.2.4-.7 1.5-1.5 3.3-.7 1.5-1.1 2.4-1.2 2.9-.2.8-.3 1.4-.4 1.8 0 0-.1 0-.1.1-.2.1-.4.2-.5.4-1.1.9-2.5 1.8-4.4 2.8-1 .5-1.8.7-2.6.7s-1.3-.2-1.7-.7c-.3-.3-.2-1 .2-2 .3-.9.6-1.5.9-1.7 3.7-3.2 6.3-6 8-8.3 2-2.8 3.2-4.9 3.6-6.4.5-1.7.1-2.8-1.2-3.3-1.1-.5-2.4.1-3.7 1.5-.7.7-1.5 1.9-2.5 3.6-.9 1.5-2.4 4.5-4.5 9-.2-.1-.4-.2-.7-.3-.9-.3-2.4-.4-4.4-.3-2.5.1-3.9.1-4.2.1-1.5-.1-2.5-.2-2.8-.3-.6-.1-1.1-.3-1.3-.6-.2-.3-.6-.5-1-.6.2-.3.5-.6.6-.8 2-2.8 3.2-5 3.7-6.5.5-1.7 0-2.8-1.3-3.3-1.4-.6-3.1.5-5.1 3.3-2 2.8-4 6.9-6 12.1-1.5 4-2.8 7.3-3.8 9.6-2.5 3.1-4 5.8-4.5 8-.3 1.5-.4 2.5 0 3 .2.4.7.5 1.4.5.7-.1 2-3.2 3.9-9.3 1.2-2.8 2.8-4.7 4.8-5.9 1.8-1.1 3.6-1.7 5.6-2-.2 1.2.2 2.1 1 2.7.6.5 1.5.7 2.6.5 1-.2 2-.6 3.1-1.2 1-.7 1.9-1.5 2.4-2.4.6-1 .9-1.9.7-2.8-.3-1.5-.7-2.4-1.3-2.8 2.3.1 3.7.1 4.3.1.8 0 1.4-.1 2-.3-1.2 2.5-1.9 4.3-2.4 5.6-.2.6-.3 1.2-.3 1.8 0 .8.3 1.3.8 1.5 1.7.8 3.8.5 6.1-.8.5-.3 1.9-1.3 4.4-3l.2-.1c0 .5.1.9.2 1.1.3.4.9.6 1.7.5.8-.1 1.5-.4 2-1 .2.4.4.8.8 1.3.7 1 1.6 1.6 2.6 2 1.2.4 2.4.5 3.6.3 1-.2 1.8-.6 2.6-1.3l.2.5c.3.5.8.8 1.4.9.6.1 1.2-.1 1.7-.6.6-.4 1-1 1.3-1.8.3-.9.3-1.9.1-3 .3-.2.8-.4 1.3-.5 1.1-.2 2.2 0 3.3.6.1.1.3.2.4.4l.1.1s.1 0 .1-.1c.1-.1 0-.4-.2-.6zm-25.5-13.1c.8-1.2 1.4-2 1.9-2.3.5-.3.7-.1.7.8-.1 1.3-1.3 3.5-3.7 6.6-1.2 1.5-2.4 2.9-3.7 4.2 1.5-3.6 3.1-6.7 4.8-9.3zm-22.6 2.5c.9-1.4 1.7-2.4 2.3-2.9.6-.6 1-.4.9.4-.1 2.1-2.5 5.7-7.3 10.8.6-2.2 1.9-4.9 4.1-8.3zm9.1 11.3c-.3.8-1 1.5-1.9 2.1-1 .6-1.9.8-2.6.5-.8-.3-1.2-.7-1.2-1.2 0-.4.3-.8.9-1.3.7-.5 1.1-.9 1.2-1.2.2-.5.2-.9-.3-1.4-.4-.5-.8-.6-1.3-.5-.3.1-.6.3-.9.6-.6.8-1 1.6-1.4 2.5 0 .1-.1.2-.1.4-.9-.1-2.1 0-3.4.4-1.2.3-2.9 1.3-5 3.2.8-1.8 1.5-3.1 2.3-4 .6-.7 1.8-2 3.7-4 .6-.6 1.1-1.1 1.5-1.7 0 .2 0 .3.1.5.2.7.7 1 1.5.9 1-.1 1.9-.2 2.6-.1 1.1.1 1.9.4 2.5.7.7.5 1.2.9 1.5 1.5.6.6.6 1.3.3 2.1zm32.4 2.1c-.4 1.2-.9 1.6-1.4 1.1-.5-.4-.3-1 .5-1.9.4-.4.8-.8 1.3-1.2 0 .8-.2 1.4-.4 2z"/></svg>